OpenSim_Sub10_CSBaseline_GRF.mot
version=1
nRows=23
nColumns=19
inDegrees=no
endheader
time	lFx	lFy	lFz	lCOPx	lCOPy	lCOPz	rFx	rFy	rFz	rCOPx	rCOPy	rCOPz	lMx	lMy	lMz	rMx	rMy	rMz
68.33000000	6.65761972	0.39043520	0.01173609	-0.00000010	0	0.00000010	-58.54014750	431.12827805	-34.83449710	0.87022772	0	-0.38118475	0	0.00000007	0	0	-1.13293238	-0.00000000
68.34000000	6.76515731	0.43294335	0.05132399	0.00000024	0	-0.00000013	-57.88090054	462.31661750	-35.37925702	0.86430050	0	-0.38142696	0	-0.00000014	0	0	-1.27839994	0
68.35000000	6.82000235	0.45116259	0.11855069	0.00000099	0	-0.00000064	-56.48620956	493.50113737	-35.67291736	0.85795062	0	-0.38181603	0	-0.00000010	0	0	-1.36955354	-0.00000000
68.36000000	6.84901971	0.45978208	0.18183105	0.00000204	0	-0.00000133	-54.50638358	523.14509571	-35.89409215	0.85132368	0	-0.38222082	0	0.00000082	0	0	-1.38694964	0
68.37000000	6.86953441	0.42475406	0.22451175	0.00000243	0	-0.00000161	-52.33973746	550.50191079	-36.38519588	0.84478972	0	-0.38258489	0	0.00000324	0	0	-1.32772211	0.00000000
68.38000000	6.86386149	0.41449475	0.26860310	-0.00000031	0	0.00000015	-50.42137979	575.21758881	-37.42383601	0.83878193	0	-0.38285578	0	0.00000690	0	0	-1.23427827	0
68.39000000	6.84293893	0.51481326	0.34789322	-0.00001017	0	0.00000655	-48.92037899	597.15610254	-39.20304456	0.83329266	0	-0.38300567	0	0.00000882	0	0	-1.18246778	-0.00000000
68.40000000	6.82323020	0.69970235	0.41789060	-0.00002993	0	0.00001947	-47.62494054	616.30577528	-41.76127326	0.82773964	0	-0.38301428	0	0.00000078	0	0	-1.21306757	0
68.41000000	6.82878734	0.86382585	0.46638345	-0.00005300	0	0.00003470	-46.31847616	632.96164342	-44.91408689	0.82184312	0	-0.38286854	0	-0.00003105	0	0	-1.27177747	-0.00000000
68.42000000	6.86911820	0.94793648	0.49062518	-0.00004860	0	0.00003231	-45.00582114	647.39830203	-48.42795996	0.81571506	0	-0.38258462	0	-0.00009797	0	0	-1.31967754	0
68.43000000	6.91216714	0.97072496	0.49103209	0.00005229	0	-0.00003275	-43.75933316	659.64993048	-52.00201197	0.80968232	0	-0.38220372	0	-0.00018193	0	0	-1.39658105	0
68.44000000	6.92353410	0.99199974	0.47634444	0.00034424	0	-0.00022268	-42.48857905	669.52051618	-55.38396012	0.80386922	0	-0.38179373	0	-0.00018500	0	0	-1.45328549	0.00000000
68.45000000	6.91894039	1.00149729	0.43346052	0.00085471	0	-0.00055697	-41.07499057	676.68161871	-58.29075662	0.79827728	0	-0.38139330	0	0.00012398	0	0	-1.46069973	0
68.46000000	6.88730991	1.03581882	0.37248569	0.00130912	0	-0.00085933	-39.47353480	680.40308767	-60.29868690	0.79275173	0	-0.38102188	0	0.00108070	0	0	-1.49249728	0
68.47000000	6.82132553	1.02407797	0.29788268	0.00076348	0	-0.00051660	-37.62624811	679.97842640	-61.09326721	0.78707846	0	-0.38071525	0	0.00283563	0	0	-1.49846784	0
68.48000000	6.76531737	0.77986805	0.25708793	-0.00262866	0	0.00167826	-35.46273500	675.49976198	-60.63158447	0.78124509	0	-0.38048707	0	0.00457590	0	0	-1.39046407	-0.00000000
68.49000000	6.70349151	0.11901074	0.21387955	-0.01093574	0	0.00709248	-32.93998035	667.87723684	-59.08563138	0.77543717	0	-0.38032869	0	0.00324467	0	0	-1.26987091	0.00000000
68.50000000	6.60092807	-0.99561136	0.13945540	-0.02348333	0	0.01533114	-30.12790876	658.28386317	-56.91320213	0.76979598	0	-0.38022799	0	-0.00742626	0	0	-1.19106867	0
68.51000000	6.50116296	-1.96391705	0.02034741	-0.03036527	0	0.02000204	-27.14627096	647.60293289	-54.63988814	0.76419887	0	-0.38018679	0	-0.03501930	0	0	-1.07898384	0
68.52000000	6.64544023	-0.64125320	-0.30689803	-0.00383721	0	0.00304961	-24.12335453	636.38512818	-52.55547877	0.75847010	0	-0.38016113	0	-0.07895974	0	0	-0.91976983	-0.00000000
68.53000000	7.51738948	7.08712393	-1.01713831	0.10340400	0	-0.06651699	-20.97767470	624.89405455	-50.76679166	0.75244584	0	-0.38009488	0	-0.10873799	0	0	-0.74730510	0
68.54000000	9.53920412	25.52335296	-2.22831085	0.33084891	0	-0.21503013	-17.74101709	613.36850127	-49.37690094	0.74623119	0	-0.37998281	0	-0.03320865	0	0	-0.52604195	0
68.55000000	11.67970539	54.90353987	-3.32678206	0.62337967	0	-0.40762106	-14.59715191	602.15289412	-48.33955580	0.74008232	0	-0.37985199	0	0.29913819	0	0	-0.28769527	0.00000000
